<?xml version="1.0" encoding="UTF-8" standalone="no"?>
<svg
   xmlns:dc="http://purl.org/dc/elements/1.1/"
   xmlns:cc="http://creativecommons.org/ns#"
   xmlns:rdf="http://www.w3.org/1999/02/22-rdf-syntax-ns#"
   xmlns:svg="http://www.w3.org/2000/svg"
   xmlns="http://www.w3.org/2000/svg"
   xmlns:sodipodi="http://sodipodi.sourceforge.net/DTD/sodipodi-0.dtd"
   xmlns:inkscape="http://www.inkscape.org/namespaces/inkscape"
   width="181.06842mm"
   height="113.89895mm"
   viewBox="0 0 181.06842 113.89895"
   version="1.1"
   id="svg8"
   inkscape:version="1.0.1 (3bc2e813f5, 2020-09-07)"
   sodipodi:docname="send.svg">
  <defs
     id="defs2" />
  <sodipodi:namedview
     id="base"
     pagecolor="#ffffff"
     bordercolor="#666666"
     borderopacity="1.0"
     inkscape:pageopacity="0.0"
     inkscape:pageshadow="2"
     inkscape:zoom="0.35"
     inkscape:cx="631.16627"
     inkscape:cy="249.01935"
     inkscape:document-units="mm"
     inkscape:current-layer="layer1"
     inkscape:document-rotation="0"
     showgrid="false"
     inkscape:window-width="1366"
     inkscape:window-height="715"
     inkscape:window-x="-8"
     inkscape:window-y="-8"
     inkscape:window-maximized="1" />
  <metadata
     id="metadata5">
    <rdf:RDF>
      <cc:Work
         rdf:about="">
        <dc:format>image/svg+xml</dc:format>
        <dc:type
           rdf:resource="http://purl.org/dc/dcmitype/StillImage" />
        <dc:title></dc:title>
      </cc:Work>
    </rdf:RDF>
  </metadata>
  <g
     inkscape:label="Layer 1"
     inkscape:groupmode="layer"
     id="layer1"
     transform="translate(144.24055,-100.42315)">
    <path
       id="path863"
       style="fill:#00a5e9;stroke-width:0.833198"
       d="m -60.640683,110.78979 c -64.309217,0 -65.981397,0.04 -64.380837,1.54359 1.52257,1.43021 45.277758,38.6907 58.140195,49.51023 3.119355,2.62393 5.959631,4.77081 6.311795,4.77081 0.584392,0 1.585461,-0.7677 24.418039,-20.28891 a 36.121241,36.121241 0 0 1 -4.50861,-17.47497 36.121241,36.121241 0 0 1 4.839683,-18.06075 z m -73.985797,4.05277 v 43.66078 c 0,24.01352 0.23896,43.9 0.53089,44.19199 0.29195,0.29197 1.51067,-0.1686 2.70803,-1.02343 3.31616,-2.36748 38.128383,-32.33061 43.822575,-37.71839 l 5.013825,-4.74417 -4.531351,-4.00436 c -10.088453,-8.91619 -43.113539,-37.16622 -45.252459,-38.70933 z m 103.137276,38.05791 c -4.378263,3.86001 -7.318978,6.5011 -7.318978,6.61266 0,0.29458 41.6391701,35.90042 47.2340067,40.39002 l 4.0079423,3.21617 0.221906,-22.00177 c 0.05736,-5.68117 0.08682,-13.06712 0.09032,-20.5498 a 36.121241,36.121241 0 0 1 -17.2849032,4.40399 36.121241,36.121241 0 0 1 -26.9502958,-12.07127 z m -44.206281,12.03228 -3.844519,3.11545 c -7.555378,6.12227 -46.754456,39.5705 -46.754456,39.89521 0,0.18207 29.70381,0.33107 66.00824,0.33107 64.4331408,0 65.9689689,-0.0371 64.3649084,-1.55302 -4.57414029,-4.32281 -48.6700034,-41.77344 -49.1856694,-41.77344 -0.329524,0 -3.077727,1.99704 -6.10711,4.43778 -3.029371,2.44076 -6.498169,5.08151 -7.708531,5.86863 l -2.200859,1.43119 -7.28584,-5.87644 z" />
    <path
       style="fill:#00a5e9;fill-opacity:1;stroke-width:0.255073"
       d="m -13.97254,147.71396 c -0.113497,-0.17536 -0.243551,-2.44232 -0.288997,-5.03769 l -0.08262,-4.71884 14.85995452,-11.09565 C 8.6887784,120.75913 15.76533,115.49762 16.241477,115.16948 c 1.807661,-1.24571 0.492859,-0.76692 -2.909448,1.05949 -3.021814,1.62216 -10.4080317,5.49349 -29.576199,15.50176 l -3.850806,2.01061 -3.37645,-2.29533 c -4.988564,-3.39128 -5.157873,-3.5351 -5.068344,-4.30563 0.104196,-0.89678 -0.495137,-0.66431 31.3232213,-12.14895 4.1385454,-1.49378 10.2220327,-3.69398 13.5188477,-4.88931 10.273433,-3.7249 11.044414,-3.96549 10.896662,-3.40048 -0.108254,0.41397 -19.4693558,32.52115 -23.5774425,39.09928 -1.1903918,1.90614 -1.4938496,2.23188 -2.0791369,2.23188 -0.4400523,0 -1.91152431,-0.82404 -4.1115737,-2.30252 -1.8844467,-1.26638 -3.5747474,-2.24554 -3.7562339,-2.1759 -0.1814804,0.0696 -1.3341459,0.79721 -2.5614641,1.61682 -2.4057249,1.60657 -4.4782029,2.8616 -4.7254329,2.8616 -0.08464,0 -0.246699,-0.14347 -0.360195,-0.31884 z"
       id="path903" />
  </g>
</svg>
