<?xml version="1.0" encoding="UTF-8" standalone="no"?>
<!-- Created with Inkscape (http://www.inkscape.org/) -->

<svg
   xmlns:dc="http://purl.org/dc/elements/1.1/"
   xmlns:cc="http://creativecommons.org/ns#"
   xmlns:rdf="http://www.w3.org/1999/02/22-rdf-syntax-ns#"
   xmlns:svg="http://www.w3.org/2000/svg"
   xmlns="http://www.w3.org/2000/svg"
   xmlns:sodipodi="http://sodipodi.sourceforge.net/DTD/sodipodi-0.dtd"
   xmlns:inkscape="http://www.inkscape.org/namespaces/inkscape"
   width="179.49098mm"
   height="195.84035mm"
   viewBox="0 0 179.49098 195.84034"
   version="1.1"
   id="svg8"
   inkscape:version="0.92.5 (2060ec1f9f, 2020-04-08)"
   sodipodi:docname="trash.svg">
  <defs
     id="defs2" />
  <sodipodi:namedview
     id="base"
     pagecolor="#ffffff"
     bordercolor="#666666"
     borderopacity="1.0"
     inkscape:pageopacity="0.0"
     inkscape:pageshadow="2"
     inkscape:zoom="0.25"
     inkscape:cx="699.37469"
     inkscape:cy="895.64651"
     inkscape:document-units="mm"
     inkscape:current-layer="layer1"
     showgrid="false"
     inkscape:window-width="1920"
     inkscape:window-height="1025"
     inkscape:window-x="0"
     inkscape:window-y="0"
     inkscape:window-maximized="1" />
  <metadata
     id="metadata5">
    <rdf:RDF>
      <cc:Work
         rdf:about="">
        <dc:format>image/svg+xml</dc:format>
        <dc:type
           rdf:resource="http://purl.org/dc/dcmitype/StillImage" />
        <dc:title />
      </cc:Work>
    </rdf:RDF>
  </metadata>
  <g
     inkscape:label="Layer 1"
     inkscape:groupmode="layer"
     id="layer1"
     transform="translate(151.51891,-23.536701)">
    <rect
       style="opacity:1;fill:#4d4d4d;fill-opacity:1;stroke:none;stroke-width:0.0123293;stroke-miterlimit:4;stroke-dasharray:none"
       id="rect817"
       width="0.84877932"
       height="0.12890874"
       x="-56.016453"
       y="89.008171"
       ry="0" />
    <g
       id="g844"
       transform="matrix(9.6512544,0,0,7.5956041,481.02113,-590.14726)">
      <path
         sodipodi:nodetypes="csssscc"
         inkscape:connector-curvature="0"
         id="rect815"
         d="m -55.562579,89.43412 v 0.09529 c 0,0.0054 -0.0043,0.0096 -0.0097,0.0096 h -0.05616 c -0.0053,0 -0.0097,-0.0043 -0.0097,-0.0096 v -0.09529 z"
         style="opacity:1;fill:#4d4d4d;fill-opacity:1;stroke:none;stroke-width:0.00131791;stroke-miterlimit:4;stroke-dasharray:none" />
      <path
         inkscape:connector-curvature="0"
         id="rect820"
         d="m -55.621574,89.445856 c 0.0032,0 0.0057,0.0025 0.0057,0.0057 v 0.07088 c 0,0.0032 -0.0026,0.0057 -0.0057,0.0057 -0.0032,0 -0.0057,-0.0025 -0.0057,-0.0057 v -0.07088 c 0,-0.0032 0.0026,-0.0057 0.0057,-0.0057 z"
         style="opacity:1;fill:#ffffff;fill-opacity:1;stroke:none;stroke-width:0.00115042;stroke-miterlimit:4;stroke-dasharray:none" />
      <path
         inkscape:connector-curvature="0"
         id="rect824"
         d="m -55.579097,89.445856 c 0.0032,0 0.0057,0.0025 0.0057,0.0057 v 0.07088 c 0,0.0032 -0.0026,0.0057 -0.0057,0.0057 -0.0032,0 -0.0057,-0.0025 -0.0057,-0.0057 v -0.07088 c 0,-0.0032 0.0026,-0.0057 0.0057,-0.0057 z"
         style="opacity:1;fill:#ffffff;fill-opacity:1;stroke:none;stroke-width:0.00115042;stroke-miterlimit:4;stroke-dasharray:none" />
    </g>
    <rect
       ry="0"
       y="88.968719"
       x="-55.81139"
       height="0.032850124"
       width="0.43864068"
       id="rect839"
       style="opacity:1;fill:#4d4d4d;fill-opacity:1;stroke:none;stroke-width:0.00447425;stroke-miterlimit:4;stroke-dasharray:none" />
    <path
       style="fill:#000000;stroke-width:0.1891043"
       d="m -114.38635,213.94937 c -4.67758,-0.69165 -9.07156,-3.67016 -12.22986,-8.29012 -1.96494,-2.87432 -3.21429,-5.75887 -4.06147,-9.37734 l -0.39846,-1.70194 -0.0536,-59.70968 -0.0535,-59.709674 -6.09629,-9.46e-4 c -3.67044,-6.34e-4 -6.38052,-0.08003 -6.81059,-0.199427 -0.97234,-0.270015 -1.93988,-1.164306 -2.31098,-2.136005 -0.26201,-0.686057 -0.29901,-1.538253 -0.24866,-5.725949 l 0.0591,-4.919935 0.52025,-0.7856 c 0.28614,-0.432076 0.88182,-0.978737 1.32373,-1.21481 l 0.80348,-0.42922 19.20645,-0.05241 19.20644,-0.05241 4.13371,-9.87557 c 2.273552,-5.431557 4.384174,-10.386152 4.690277,-11.010192 2.351787,-4.794491 7.962509,-8.877866 13.37105,-9.731188 1.67834,-0.264793 41.437448,-0.264793 43.115779,0 3.51878,0.555174 7.033359,2.373109 9.957093,5.15037 2.663415,2.529988 2.698907,2.59822 8.211391,15.784875 l 4.051269,9.691221 18.81588008,0.0019 C 13.831603,59.656266 19.865197,59.7204 20.388436,59.863365 c 1.058311,0.289085 1.964966,1.029591 2.380232,1.944022 0.315639,0.695053 0.353467,1.294536 0.353467,5.600524 0,4.274724 -0.03945,4.908924 -0.347138,5.586401 -0.423648,0.93264 -1.309918,1.708195 -2.250608,1.96945 -0.416449,0.115662 -3.189586,0.195747 -6.799546,0.196371 l -6.096283,9.46e-4 -0.052595,59.520581 -0.052595,59.52056 -0.5001666,1.9856 c -1.2103737,4.80506 -2.8312089,8.04115 -5.8128918,11.60573 -2.3127288,2.76485 -5.3595315,4.80296 -8.7148306,5.82963 l -1.4182863,0.43397 -52.1927787,0.0261 c -28.706037,0.0144 -52.677976,-0.0457 -53.270986,-0.13337 z m 27.382894,-31.03693 c 0.864229,-0.47339 1.737586,-1.55694 1.909788,-2.36942 0.08315,-0.39226 0.151155,-20.15783 0.151155,-43.92352 V 93.409175 l -0.405362,-0.756417 c -0.463946,-0.865724 -0.849358,-1.241894 -1.729138,-1.687649 -0.543681,-0.275463 -1.269024,-0.307976 -5.782007,-0.259183 -5.099428,0.05515 -5.16818,0.0612 -5.824931,0.511499 -0.365528,0.250641 -0.869658,0.75498 -1.1203,1.120754 l -0.455709,0.665057 -0.0485,43.666964 c -0.0471,42.44517 -0.0385,43.68956 0.30845,44.47389 0.399605,0.90336 1.299335,1.67606 2.292921,1.96915 0.394115,0.11626 2.574391,0.18012 5.389481,0.15787 4.044827,-0.032 4.812313,-0.0838 5.314125,-0.35867 z m 31.090488,-0.18022 c 0.525471,-0.30893 1.033744,-0.81721 1.323728,-1.32373 l 0.470729,-0.82223 v -43.6831 c 0,-43.343076 -0.0028,-43.688086 -0.378214,-44.324906 -0.208016,-0.352994 -0.705052,-0.906125 -1.104521,-1.22918 l -0.726317,-0.587355 -5.174057,-0.05581 c -4.863433,-0.05241 -5.218584,-0.03301 -5.915822,0.322638 -0.941012,0.480075 -1.670054,1.343092 -1.9206,2.273557 -0.132842,0.493337 -0.179988,14.626236 -0.146804,44.005426 l 0.04891,43.2787 0.465554,0.81303 c 0.468099,0.81748 1.272041,1.44663 2.23184,1.7466 0.284554,0.0889 2.644798,0.14507 5.244985,0.12476 l 4.727603,-0.037 z m 29.970992,0.38731 c 1.058311,-0.28908 1.964975,-1.02958 2.380232,-1.94401 0.341908,-0.7529 0.353609,-2.20118 0.35763,-44.25993 l 0.0038,-43.481555 -0.401125,-0.828604 c -0.241626,-0.499135 -0.706064,-1.030405 -1.16809,-1.336158 l -0.766974,-0.507554 h -5.322535 -5.322545 l -0.786139,0.520249 c -0.432389,0.286134 -0.958569,0.858203 -1.169291,1.271256 -0.381941,0.74867 -0.382991,0.888218 -0.334671,44.595856 l 0.04843,43.84485 0.532632,0.69829 c 0.631787,0.82831 1.24021,1.25474 2.072294,1.45244 0.966865,0.22972 9.017982,0.20924 9.875958,-0.0252 z M -35.324484,58.283055 c -0.312242,-0.754053 -1.594632,-3.881366 -2.84975,-6.949586 -1.255127,-3.068219 -2.462748,-5.778128 -2.683611,-6.022024 -0.92599,-1.022554 0.09884,-0.97483 -20.934961,-0.97483 -19.481532,0 -19.513089,6.24e-4 -20.153579,0.396461 -0.352824,0.218053 -0.770616,0.646165 -0.92844,0.951351 -0.157815,0.305195 -1.52553,3.509386 -3.039358,7.120435 -1.513829,3.611048 -2.791763,6.629368 -2.839856,6.707372 -0.04805,0.07804 12.081623,0.141828 26.954914,0.141828 h 27.042349 z"
       id="path857"
       inkscape:connector-curvature="0" />
  </g>
</svg>
