<?xml version="1.0" encoding="UTF-8" standalone="no"?>
<svg
   xmlns:dc="http://purl.org/dc/elements/1.1/"
   xmlns:cc="http://creativecommons.org/ns#"
   xmlns:rdf="http://www.w3.org/1999/02/22-rdf-syntax-ns#"
   xmlns:svg="http://www.w3.org/2000/svg"
   xmlns="http://www.w3.org/2000/svg"
   xmlns:sodipodi="http://sodipodi.sourceforge.net/DTD/sodipodi-0.dtd"
   xmlns:inkscape="http://www.inkscape.org/namespaces/inkscape"
   width="114.41128mm"
   height="85.781754mm"
   viewBox="0 0 114.41128 85.781755"
   version="1.1"
   id="svg8"
   inkscape:version="1.0.1 (3bc2e813f5, 2020-09-07)"
   sodipodi:docname="upload.svg">
  <defs
     id="defs2" />
  <sodipodi:namedview
     id="base"
     pagecolor="#ffffff"
     bordercolor="#666666"
     borderopacity="1.0"
     inkscape:pageopacity="0.0"
     inkscape:pageshadow="2"
     inkscape:zoom="0.57848045"
     inkscape:cx="370.35097"
     inkscape:cy="183.47022"
     inkscape:document-units="mm"
     inkscape:current-layer="layer1"
     inkscape:document-rotation="0"
     showgrid="false"
     inkscape:window-width="1366"
     inkscape:window-height="715"
     inkscape:window-x="-8"
     inkscape:window-y="-8"
     inkscape:window-maximized="1"
     inkscape:snap-global="false"
     inkscape:snap-bbox="true"
     inkscape:bbox-paths="true"
     inkscape:snap-intersection-paths="true"
     inkscape:bbox-nodes="true"
     inkscape:snap-bbox-edge-midpoints="true"
     inkscape:snap-bbox-midpoints="true" />
  <metadata
     id="metadata5">
    <rdf:RDF>
      <cc:Work
         rdf:about="">
        <dc:format>image/svg+xml</dc:format>
        <dc:type
           rdf:resource="http://purl.org/dc/dcmitype/StillImage" />
        <dc:title></dc:title>
      </cc:Work>
    </rdf:RDF>
  </metadata>
  <g
     inkscape:label="Layer 1"
     inkscape:groupmode="layer"
     id="layer1"
     transform="translate(127.58005,-120.52324)">
    <path
       style="fill:#f19238;fill-opacity:1;stroke-width:0.20726"
       d="m -103.07813,202.96685 c -9.8092,-1.29732 -17.54809,-8.38394 -19.77779,-18.11084 -0.60947,-2.65876 -0.6046,-7.12745 0.0107,-9.81494 1.72568,-7.53734 7.18772,-13.86165 14.27374,-16.52713 l 1.75243,-0.65918 0.0737,-2.05006 c 0.48628,-13.51003 12.814074,-23.87878 26.09463,-21.94789 l 2.463413,0.35815 0.837846,-1.00771 c 3.835842,-4.61348 9.491196,-7.95822 15.422551,-9.12129 2.447561,-0.47994 7.191621,-0.48171 9.628718,-0.004 10.899253,2.13825 19.141389,10.38278 21.234295,21.24046 0.364421,1.89055 0.492091,6.22632 0.221727,7.52984 -0.15414,0.74313 -0.138057,0.76764 0.936717,1.42796 6.320172,3.8829 10.905452,10.65521 12.2033,18.02382 0.387239,2.19861 0.33926,6.94587 -0.09255,9.15723 -1.868626,9.56938 -8.781753,17.48484 -17.765867,20.34175 -4.200844,1.33585 -1.829482,1.24941 -35.532453,1.29513 -16.870993,0.0229 -31.264347,-0.0364 -31.985207,-0.13171 z m 39.342938,-22.99376 v -9.9485 h 6.683879 6.68388 l -10.000046,-10.00005 -10.000045,-10.00005 -10.000043,10.00005 -10.000046,10.00005 h 6.683883 6.683875 v 9.9485 9.94849 h 6.632331 6.632332 z"
       id="path1029" />
  </g>
</svg>
