<?xml version="1.0" encoding="UTF-8" standalone="no"?>
<svg
   xmlns:dc="http://purl.org/dc/elements/1.1/"
   xmlns:cc="http://creativecommons.org/ns#"
   xmlns:rdf="http://www.w3.org/1999/02/22-rdf-syntax-ns#"
   xmlns:svg="http://www.w3.org/2000/svg"
   xmlns="http://www.w3.org/2000/svg"
   xmlns:sodipodi="http://sodipodi.sourceforge.net/DTD/sodipodi-0.dtd"
   xmlns:inkscape="http://www.inkscape.org/namespaces/inkscape"
   width="49.32959mm"
   height="51.087307mm"
   viewBox="0 0 49.32959 51.087308"
   version="1.1"
   id="svg8"
   inkscape:version="1.0.1 (3bc2e813f5, 2020-09-07)"
   sodipodi:docname="search.svg">
  <defs
     id="defs2" />
  <sodipodi:namedview
     id="base"
     pagecolor="#ffffff"
     bordercolor="#666666"
     borderopacity="1.0"
     inkscape:pageopacity="0.0"
     inkscape:pageshadow="2"
     inkscape:zoom="1.0095384"
     inkscape:cx="254.36676"
     inkscape:cy="140.23476"
     inkscape:document-units="mm"
     inkscape:current-layer="layer1"
     inkscape:document-rotation="0"
     showgrid="false"
     inkscape:window-width="1366"
     inkscape:window-height="715"
     inkscape:window-x="-8"
     inkscape:window-y="-8"
     inkscape:window-maximized="1" />
  <metadata
     id="metadata5">
    <rdf:RDF>
      <cc:Work
         rdf:about="">
        <dc:format>image/svg+xml</dc:format>
        <dc:type
           rdf:resource="http://purl.org/dc/dcmitype/StillImage" />
        <dc:title></dc:title>
      </cc:Work>
    </rdf:RDF>
  </metadata>
  <g
     inkscape:label="Layer 1"
     inkscape:groupmode="layer"
     id="layer1"
     transform="translate(109.08944,-125.45111)">
    <path
       style="fill:#000000;stroke-width:0.292517"
       d="m -73.241951,165.85634 -7.258686,-7.22131 -2.126265,1.0556 c -2.935446,1.45735 -4.31882,1.78722 -7.537827,1.79748 -7.123147,0.0227 -13.147651,-4.33475 -15.521921,-11.22678 -0.85674,-2.48697 -0.93186,-6.92395 -0.16093,-9.5068 2.09878,-7.03155 8.528484,-11.85987 15.770379,-11.84261 4.080607,0.01 8.360538,1.78468 11.313019,4.69168 5.174019,5.09431 6.393745,12.80513 3.042567,19.23443 l -1.007158,1.93225 5.791396,5.86287 c 9.216207,9.32995 8.714947,8.73581 8.272121,9.80488 -0.409602,0.98886 -2.221418,2.63962 -2.897161,2.63962 -0.231466,0 -3.687256,-3.24959 -7.679534,-7.22131 z m -12.483791,-10.68661 c 2.20557,-1.01072 4.035115,-2.74778 5.246118,-4.98091 0.948252,-1.74861 0.991761,-1.96359 0.991761,-4.90028 0,-2.7761 -0.07922,-3.23281 -0.824002,-4.74988 -1.049847,-2.1385 -2.963526,-4.05217 -5.102557,-5.10256 -1.51771,-0.74528 -1.973735,-0.82442 -4.750307,-0.82442 -2.791691,0 -3.217958,0.075 -4.680271,0.82334 -2.109425,1.07953 -4.120008,3.07864 -5.15949,5.13007 -0.75519,1.49036 -0.83711,1.93828 -0.83711,4.57719 0,2.54928 0.0991,3.13642 0.77083,4.56913 1.357675,2.8955 3.739388,5.00321 6.772025,5.99295 1.959328,0.63945 5.566706,0.38478 7.573003,-0.53463 z"
       id="path2226"
       sodipodi:nodetypes="scscsscsscsssssssssscsssss" />
  </g>
</svg>
